<?xml version="1.0" encoding="utf-8"?>
<!-- Generator: Adobe Illustrator 16.0.0, SVG Export Plug-In . SVG Version: 6.00 Build 0)  -->
<!DOCTYPE svg PUBLIC "-//W3C//DTD SVG 1.1//EN" "http://www.w3.org/Graphics/SVG/1.1/DTD/svg11.dtd">
<svg version="1.1" id="Layer_1" xmlns="http://www.w3.org/2000/svg" xmlns:xlink="http://www.w3.org/1999/xlink" x="0px" y="0px"
	 width="4618.141px" height="735.14px" viewBox="0 0 4618.141 735.14" enable-background="new 0 0 4618.141 735.14"
	 xml:space="preserve">
<path fill="#E8496B" stroke="#000000" stroke-width="16" stroke-miterlimit="10" d="M370.411,152.606
	c0,86.709-30.565,117-68.271,117s-68.271-30.291-68.271-117s30.566-157,68.271-157S370.411,65.897,370.411,152.606z"/>
<path fill="#575778" d="M297.64,711.609c-73.041,0-138.938-19.262-185.552-54.236C61.577,619.47,34.88,565.052,34.88,500.005
	c0-9.955,0.573-19.967,1.752-30.602c0.011-0.094,0.027-0.178,0.047-0.262l0.038-0.168l0.028-0.17
	c2.972-17.266,7.313-31.336,13.274-43.016l0.138-0.27l0.112-0.277c12.637-31.137,12.557-73.884,12.519-94.426l-0.005-2.894
	c0-52.864,24.482-102.546,68.938-139.889c44.338-37.242,103.263-57.754,165.92-57.754c62.658,0,121.583,20.512,165.921,57.754
	c44.454,37.342,68.936,87.025,68.936,139.898l-0.003,2.887c-0.039,20.539-0.118,63.286,12.519,94.422l0.113,0.279l0.137,0.27
	c5.96,11.68,10.303,25.748,13.273,43.014l0.029,0.17l0.038,0.168c0.019,0.084,0.036,0.17,0.047,0.258
	c1.178,10.641,1.751,20.65,1.751,30.607c0,64.752-26.698,119.066-77.208,157.072C436.457,692.244,370.561,711.609,297.64,711.609z"
	/>
<path fill="#B39DDB" d="M517.914,305.828L297.64,335.865L77.365,305.828c-50.062,130.164-30.038,240.3,100.125,290.363
	c55.437,21.32,60.074,70.088,120.149,70.088s64.714-48.768,120.149-70.088C547.953,546.128,567.978,435.992,517.914,305.828z"/>
<path fill="#E1BEE7" d="M205.698,480.33l91.941,5.725l91.94-5.725c47.577-96.59,131.289-87.289,131.289-208.205
	c0-2.116-0.054-4.21-0.138-6.29c-11.36-29.015-30.733-55.59-57.172-77.8c-32.445-27.252-72.708-45.533-116.524-53.386
	c-15.34-1.345-31.786-2.042-49.396-2.042s-34.058,0.697-49.396,2.042c-43.814,7.853-84.077,26.133-116.522,53.386
	c-26.439,22.21-45.812,48.785-57.174,77.798c-0.084,2.082-0.137,4.176-0.137,6.292C74.41,393.042,158.121,383.74,205.698,480.33z"/>
<path fill="#464655" d="M297.64,644.636c0,0,14.618,4.867,27.903-37.205c18.603-58.906,65.108-91.85,65.108-139.52
	c0-32.555-51.738-55.809-93.013-18.604c-41.274-37.205-93.014-13.951-93.014,18.604c0,47.67,46.507,80.611,65.109,139.52
	C283.022,649.503,297.64,644.636,297.64,644.636z"/>
<path fill="#F4D8A6" d="M308.141,441.24c-6.475,4.178-14.528,4.178-21.001,0c-39.037-25.195-82.514-3.168-82.514,26.672
	c0,1.82,0.191,3.584,0.322,5.361c5.815,49.996,92.69,50.607,92.69,68.588c0-17.98,86.875-18.592,92.689-68.586
	c0.133-1.779,0.322-3.541,0.322-5.361C390.653,438.072,347.177,416.044,308.141,441.24z"/>
<path d="M111.615,300.029c-16.186,0-18.603,29.139-18.603,46.506c0,17.367,2.417,46.505,18.603,46.505
	c16.185,0,18.603-29.139,18.603-46.505C130.218,329.168,127.8,300.029,111.615,300.029z"/>
<path d="M483.665,300.029c-16.186,0-18.603,29.139-18.603,46.506c0,17.367,2.417,46.505,18.603,46.505s18.604-29.139,18.604-46.505
	C502.268,329.168,499.85,300.029,483.665,300.029z"/>
<path d="M370.191,426.425c-18.306-8.145-46.312-9.09-72.551,10.83c-26.237-19.92-54.246-18.973-72.552-10.83
	c-18.357,8.168-29.763,24.064-29.763,41.486c0,29.26,15.461,52.885,31.83,77.896c12.698,19.402,25.831,39.469,33.71,64.422
	c7.036,22.281,15.865,36.264,26.24,41.557c3.553,1.812,6.685,2.316,9.071,2.316c0.524,0,1.012-0.023,1.462-0.064
	c0.449,0.041,0.938,0.064,1.463,0.064c2.385,0,5.518-0.504,9.07-2.316c10.376-5.293,19.204-19.273,26.239-41.557
	c7.882-24.953,21.013-45.02,33.713-64.422c16.366-25.012,31.827-48.637,31.827-77.896
	C399.953,450.49,388.55,434.593,370.191,426.425z M316.675,604.63c-8.368,26.496-16.229,30.359-17.532,30.824
	c-0.075-0.012-0.149-0.016-0.227-0.025c-0.156-0.021-0.312-0.043-0.471-0.057c-0.122-0.01-0.244-0.018-0.366-0.021
	c-0.147-0.008-0.299-0.014-0.448-0.014c-0.131,0-0.261,0.006-0.391,0.012c-0.143,0.008-0.283,0.014-0.425,0.025
	s-0.279,0.029-0.417,0.049c-0.088,0.014-0.174,0.018-0.261,0.031c-1.303-0.465-9.164-4.328-17.533-30.826
	c-8.651-27.395-23.119-49.502-35.884-69.008c-4.437-6.779-8.695-13.291-12.521-19.693c0.521,0.211,1.041,0.42,1.557,0.631
	c8.396,3.387,16.324,6.588,22.295,13.328c1.838,2.074,4.396,3.135,6.967,3.135c2.191,0,4.394-0.771,6.163-2.342
	c3.846-3.404,4.201-9.281,0.797-13.129c-8.874-10.02-19.704-14.389-29.259-18.244c-13.433-5.42-20.638-8.852-23.946-21.062
	c-0.547-3.385-0.849-6.822-0.849-10.332c0-9.969,7.175-19.355,18.724-24.49c14.424-6.416,37.429-6.424,58.749,12.785
	c0.241,0.219,0.489,0.422,0.748,0.609c0.04,0.029,0.083,0.055,0.124,0.082c0.212,0.148,0.426,0.295,0.646,0.426
	c0.111,0.064,0.228,0.119,0.34,0.178c0.153,0.082,0.307,0.17,0.462,0.242c0.167,0.078,0.339,0.141,0.507,0.207
	c0.108,0.043,0.218,0.094,0.327,0.133c0.194,0.068,0.392,0.119,0.588,0.176c0.091,0.023,0.181,0.059,0.271,0.078
	c0.197,0.049,0.397,0.082,0.599,0.119c0.095,0.018,0.188,0.039,0.282,0.055c0.188,0.025,0.377,0.039,0.565,0.057
	c0.108,0.008,0.219,0.023,0.326,0.029c0.171,0.008,0.342,0.002,0.512,0.002c0.129-0.002,0.258,0.006,0.386-0.002
	c0.151-0.008,0.302-0.025,0.451-0.041c0.148-0.016,0.297-0.023,0.443-0.045c0.135-0.02,0.268-0.051,0.401-0.074
	c0.16-0.031,0.321-0.059,0.48-0.096c0.132-0.031,0.263-0.076,0.394-0.115c0.156-0.047,0.312-0.086,0.467-0.141
	c0.152-0.053,0.302-0.121,0.451-0.182c0.127-0.053,0.258-0.1,0.383-0.158c0.197-0.09,0.389-0.195,0.578-0.301
	c0.074-0.041,0.152-0.076,0.228-0.121c0.256-0.15,0.506-0.314,0.749-0.492c0.008-0.006,0.017-0.01,0.022-0.016
	c0.26-0.189,0.511-0.395,0.752-0.611c21.32-19.211,44.326-19.203,58.749-12.785c11.549,5.137,18.722,14.521,18.722,24.49
	c0,3.51-0.299,6.947-0.848,10.33c-3.31,12.213-10.515,15.645-23.945,21.064c-9.555,3.855-20.384,8.227-29.259,18.244
	c-3.405,3.846-3.051,9.725,0.797,13.129c1.77,1.57,3.972,2.34,6.163,2.34c2.568,0,5.128-1.059,6.967-3.133
	c5.97-6.742,13.898-9.941,22.294-13.33c0.516-0.209,1.035-0.418,1.557-0.629c-3.822,6.402-8.083,12.914-12.52,19.693
	C339.794,555.126,325.326,577.234,316.675,604.63z"/>
<path d="M565.582,468.636c-0.02-0.18-0.056-0.354-0.086-0.529v-0.002c0-0.004,0-0.006-0.001-0.008
	c-0.026-0.16-0.049-0.316-0.085-0.473c-3.057-17.766-7.605-32.604-13.935-45.006c-12.122-29.869-12.044-71.684-12.007-91.789
	l0.004-2.897c0-54.968-25.366-106.549-71.426-145.239c-45.594-38.297-106.111-59.389-170.407-59.389
	c-64.297,0-124.814,21.092-170.407,59.389c-46.061,38.69-71.425,90.271-71.425,145.239l0.003,2.896
	c0.037,20.106,0.114,61.92-12.008,91.79c-6.327,12.4-10.878,27.24-13.935,45.006c-0.034,0.154-0.058,0.314-0.084,0.473
	c0,0.002,0,0.004-0.002,0.006v0.004c-0.028,0.176-0.066,0.35-0.086,0.529c-1.207,10.895-1.794,21.154-1.794,31.371
	c0,67.328,27.663,123.674,79.999,162.945c47.812,35.875,115.195,55.633,189.737,55.633c74.424,0,141.811-19.863,189.748-55.932
	c52.329-39.375,79.987-95.617,79.987-162.646C567.376,489.789,566.789,479.529,565.582,468.636z M297.64,699.982
	c-125.003,0-251.135-61.834-251.135-199.977c0-9.4,0.541-18.869,1.643-28.924c6.159-36.08,18.21-57.029,40.283-70.025
	c4.426-2.605,5.901-8.309,3.295-12.732c-2.607-4.428-8.31-5.904-12.735-3.297c-2.761,1.624-5.39,3.357-7.907,5.196
	c3.394-23.269,3.354-45.952,3.33-59.427l-0.003-2.863c0-102.576,100.142-186.025,223.229-186.025s223.229,83.45,223.229,186.025
	l-0.004,2.862c-0.024,13.475-0.062,36.16,3.33,59.427c-2.518-1.838-5.146-3.57-7.907-5.196c-4.427-2.608-10.128-1.133-12.733,3.296
	c-2.607,4.426-1.132,10.129,3.295,12.732c22.072,12.998,34.124,33.945,40.282,70.025c1.101,10.057,1.642,19.523,1.642,28.926
	C548.774,638.148,422.643,699.982,297.64,699.982z"/>
<g enable-background="new    ">
	<path d="M1036.645,572.861v-34.824h-1.071c-8.572,13.578-20.811,24.025-36.699,31.342c-15.897,7.316-32.773,10.983-50.629,10.983
		c-20.007,0-37.863-3.935-53.575-11.787c-15.721-7.853-29.023-18.299-39.914-31.342c-10.899-13.033-19.203-28.127-24.913-45.271
		c-5.717-17.144-8.572-34.999-8.572-53.575c0-18.567,2.947-36.339,8.84-53.308c5.893-16.96,14.281-31.877,25.181-44.735
		c10.891-12.858,24.109-23.037,39.646-30.538c15.537-7.5,32.949-11.251,52.236-11.251c19.639,0,36.247,3.751,49.825,11.251
		c13.569,7.501,24.109,15.722,31.609,24.645h1.071V167.831h87.864v405.03H1036.645z M1033.431,438.922
		c0-8.572-1.523-16.96-4.554-25.181c-3.039-8.212-7.325-15.537-12.858-21.966c-5.542-6.429-12.239-11.603-20.091-15.537
		c-7.86-3.926-16.792-5.894-26.788-5.894c-10.363,0-19.471,1.968-27.323,5.894c-7.861,3.935-14.466,9.024-19.823,15.27
		c-5.357,6.253-9.375,13.485-12.054,21.697c-2.679,8.221-4.019,16.608-4.019,25.181s1.339,17.061,4.019,25.448
		c2.679,8.396,6.697,15.805,12.054,22.234c5.357,6.429,11.962,11.61,19.823,15.537c7.852,3.934,16.96,5.893,27.323,5.893
		c9.995,0,18.927-1.959,26.788-5.893c7.852-3.927,14.549-9.108,20.091-15.537c5.533-6.43,9.819-13.746,12.858-21.966
		C1031.907,455.89,1033.431,447.495,1033.431,438.922z"/>
	<path d="M1470.065,438.386c0,21.79-3.935,41.521-11.787,59.201c-7.86,17.68-18.575,32.681-32.146,45.003
		c-13.577,12.322-29.29,21.883-47.146,28.663c-17.864,6.781-36.968,10.18-57.326,10.18c-20.007,0-39.026-3.398-57.058-10.18
		c-18.04-6.78-33.753-16.341-47.146-28.663s-24.025-27.323-31.878-45.003c-7.86-17.68-11.786-37.411-11.786-59.201
		c0-21.781,3.926-41.429,11.786-58.933c7.853-17.496,18.484-32.321,31.878-44.468c13.394-12.139,29.106-21.431,47.146-27.859
		c18.031-6.429,37.051-9.644,57.058-9.644c20.358,0,39.462,3.215,57.326,9.644c17.855,6.429,33.568,15.721,47.146,27.859
		c13.57,12.146,24.285,26.972,32.146,44.468C1466.131,396.958,1470.065,416.605,1470.065,438.386z M1385.416,438.386
		c0-8.572-1.432-16.96-4.286-25.181c-2.863-8.212-6.965-15.444-12.322-21.697c-5.357-6.245-11.971-11.335-19.823-15.27
		c-7.86-3.926-16.968-5.894-27.323-5.894c-10.363,0-19.472,1.968-27.323,5.894c-7.86,3.935-14.382,9.024-19.556,15.27
		c-5.182,6.253-9.107,13.485-11.786,21.697c-2.679,8.221-4.019,16.608-4.019,25.181s1.34,16.969,4.019,25.181
		c2.679,8.221,6.697,15.629,12.055,22.233c5.357,6.613,11.962,11.879,19.822,15.806c7.853,3.934,16.96,5.893,27.324,5.893
		c10.354,0,19.463-1.959,27.323-5.893c7.852-3.927,14.465-9.192,19.823-15.806c5.357-6.604,9.375-14.013,12.054-22.233
		C1384.076,455.355,1385.416,446.958,1385.416,438.386z"/>
	<path d="M1866.517,572.861V427.135c0-7.5-0.536-14.733-1.607-21.697c-1.071-6.965-3.039-12.942-5.894-17.948
		c-2.862-4.998-6.696-9.016-11.519-12.055c-4.821-3.03-11.167-4.554-19.02-4.554c-7.5,0-14.021,1.607-19.555,4.822
		c-5.542,3.214-10.18,7.5-13.93,12.857s-6.521,11.519-8.304,18.483c-1.792,6.965-2.679,14.198-2.679,21.698v144.118h-87.864V420.707
		c0-15.353-3.039-27.499-9.107-36.432c-6.078-8.923-15.722-13.394-28.931-13.394c-13.93,0-24.737,5.542-32.414,16.608
		c-7.685,11.075-11.519,24.645-11.519,40.718v144.653h-88.399V306.055h85.186v36.967h1.071c3.215-5.709,7.232-11.251,12.055-16.608
		c4.821-5.357,10.623-10.087,17.412-14.197c6.78-4.102,14.373-7.408,22.77-9.911c8.388-2.495,17.588-3.751,27.591-3.751
		c19.287,0,35.628,3.935,49.021,11.787c13.394,7.86,23.841,19.111,31.342,33.752c8.924-13.93,20.358-24.996,34.288-33.217
		c13.93-8.212,30.89-12.322,50.896-12.322c18.216,0,33.485,3.307,45.808,9.912c12.322,6.613,22.233,15.185,29.734,25.716
		c7.5,10.539,12.941,22.326,16.341,35.359c3.39,13.043,5.089,25.809,5.089,38.307v165.013H1866.517z"/>
	<path d="M2017.062,342.487c15.713-15.002,34.021-26.252,54.915-33.753s42.232-11.251,64.022-11.251
		c22.502,0,41.521,2.771,57.058,8.305c15.537,5.541,28.127,14.113,37.771,25.716c9.644,11.61,16.692,26.252,21.163,43.932
		c4.461,17.68,6.696,38.667,6.696,62.951v134.475h-80.363v-28.395h-1.606c-6.789,11.074-17.061,19.646-30.807,25.716
		c-13.754,6.069-28.663,9.107-44.735,9.107c-10.715,0-21.79-1.431-33.217-4.286c-11.435-2.854-21.882-7.5-31.342-13.929
		c-9.468-6.43-17.236-15.002-23.305-25.717c-6.078-10.715-9.108-23.925-9.108-39.646c0-19.287,5.266-34.824,15.805-46.611
		c10.531-11.786,24.109-20.894,40.718-27.323c16.608-6.429,35.092-10.715,55.45-12.857c20.359-2.144,40.182-3.215,59.469-3.215
		v-4.286c0-13.21-4.646-22.945-13.93-29.198c-9.292-6.245-20.719-9.376-34.288-9.376c-12.507,0-24.561,2.679-36.163,8.036
		c-11.611,5.357-21.522,11.786-29.734,19.287L2017.062,342.487z M2178.324,456.602h-11.251c-9.644,0-19.379,0.452-29.198,1.34
		c-9.828,0.896-18.575,2.595-26.252,5.089c-7.685,2.503-14.021,6.161-19.02,10.983c-5.006,4.821-7.5,11.167-7.5,19.02
		c0,5.006,1.155,9.292,3.482,12.857c2.318,3.575,5.266,6.43,8.84,8.572c3.566,2.144,7.676,3.667,12.322,4.554
		c4.638,0.896,9.107,1.34,13.394,1.34c17.855,0,31.518-4.905,40.985-14.733c9.46-9.819,14.197-23.121,14.197-39.914V456.602z"/>
	<path d="M2419.411,220.87c0,6.789-1.339,13.126-4.018,19.02s-6.254,10.983-10.716,15.27c-4.47,4.286-9.827,7.685-16.072,10.179
		c-6.253,2.503-12.774,3.751-19.555,3.751c-14.29,0-26.252-4.73-35.896-14.198c-9.644-9.459-14.466-20.802-14.466-34.021
		c0-6.429,1.247-12.59,3.75-18.483c2.495-5.893,6.069-10.982,10.716-15.269c4.638-4.286,9.995-7.769,16.072-10.447
		c6.069-2.679,12.674-4.019,19.823-4.019c6.78,0,13.302,1.256,19.555,3.751c6.245,2.503,11.603,5.893,16.072,10.179
		c4.462,4.286,8.037,9.376,10.716,15.27C2418.072,207.744,2419.411,214.089,2419.411,220.87z M2325.118,572.861V306.055h87.864
		v266.806H2325.118z"/>
	<path d="M2657.817,572.861V427.135c0-7.5-0.628-14.641-1.876-21.43c-1.255-6.781-3.307-12.767-6.161-17.948
		c-2.862-5.173-6.881-9.283-12.054-12.322c-5.183-3.03-11.703-4.554-19.556-4.554c-7.86,0-14.733,1.523-20.626,4.554
		c-5.894,3.039-10.808,7.232-14.733,12.591c-3.935,5.357-6.881,11.519-8.84,18.483c-1.968,6.965-2.947,14.197-2.947,21.698v144.653
		h-88.399V306.055h85.186v36.967h1.071c3.215-5.709,7.408-11.334,12.59-16.876c5.174-5.533,11.251-10.264,18.216-14.197
		c6.965-3.927,14.549-7.141,22.77-9.644c8.212-2.495,16.96-3.751,26.252-3.751c17.855,0,33.033,3.215,45.539,9.644
		c12.498,6.43,22.586,14.733,30.271,24.913c7.676,10.179,13.21,21.882,16.608,35.092c3.39,13.218,5.09,26.437,5.09,39.646v165.013
		H2657.817z"/>
</g>
<g enable-background="new    ">
	<path fill="#727272" d="M3109.457,438.386c0,18.576-2.863,36.432-8.572,53.575c-5.719,17.145-14.021,32.238-24.913,45.271
		c-10.899,13.043-24.201,23.489-39.914,31.342c-15.721,7.853-33.577,11.787-53.575,11.787c-16.433,0-31.97-3.307-46.611-9.912
		c-14.648-6.604-26.076-15.62-34.287-27.056h-1.072v158.048h-87.863V306.055h83.578v32.681h1.606
		c8.212-10.715,19.556-20.091,34.021-28.127s31.518-12.055,51.164-12.055c19.287,0,36.783,3.751,52.504,11.251
		c15.713,7.501,29.016,17.68,39.914,30.538c10.891,12.858,19.287,27.775,25.182,44.735
		C3106.51,402.047,3109.457,419.819,3109.457,438.386z M3024.271,438.386c0-8.572-1.34-16.96-4.019-25.181
		c-2.679-8.212-6.613-15.444-11.786-21.697c-5.182-6.245-11.703-11.335-19.555-15.27c-7.861-3.926-16.969-5.894-27.324-5.894
		c-10.004,0-18.936,1.968-26.787,5.894c-7.861,3.935-14.559,9.108-20.092,15.537c-5.541,6.429-9.827,13.754-12.857,21.966
		c-3.039,8.221-4.555,16.608-4.555,25.181s1.516,16.968,4.555,25.181c3.03,8.22,7.316,15.536,12.857,21.966
		c5.533,6.429,12.23,11.61,20.092,15.537c7.852,3.934,16.783,5.893,26.787,5.893c10.355,0,19.463-1.959,27.324-5.893
		c7.852-3.927,14.373-9.108,19.555-15.537c5.173-6.43,9.107-13.838,11.786-22.234
		C3022.931,455.447,3024.271,446.958,3024.271,438.386z"/>
	<path fill="#727272" d="M3429.301,442.672c0,3.574,0,7.149,0,10.715c0,3.575-0.186,6.965-0.537,10.18h-193.406
		c0.711,7.501,2.945,14.29,6.697,20.358c3.75,6.078,8.572,11.343,14.465,15.805c5.893,4.471,12.498,7.953,19.822,10.447
		c7.316,2.503,14.91,3.751,22.77,3.751c13.93,0,25.717-2.587,35.359-7.769c9.645-5.174,17.496-11.87,23.574-20.091l61.076,38.574
		c-12.506,18.216-29.023,32.237-49.557,42.057c-20.543,9.819-44.385,14.733-71.523,14.733c-20.008,0-38.936-3.131-56.791-9.376
		c-17.863-6.245-33.484-15.353-46.879-27.323c-13.393-11.963-23.932-26.696-31.609-44.2c-7.684-17.495-11.518-37.503-11.518-60.004
		c0-21.782,3.75-41.521,11.25-59.201s17.68-32.681,30.539-45.003c12.857-12.323,28.035-21.874,45.539-28.663
		c17.494-6.781,36.43-10.18,56.789-10.18c19.639,0,37.68,3.307,54.111,9.911c16.424,6.613,30.539,16.165,42.324,28.663
		c11.787,12.507,20.979,27.684,27.592,45.539C3425.994,399.46,3429.301,419.819,3429.301,442.672z M3348.4,408.92
		c0-13.93-4.377-25.893-13.125-35.896c-8.756-9.995-21.883-15.001-39.379-15.001c-8.57,0-16.432,1.34-23.572,4.019
		c-7.148,2.679-13.395,6.346-18.752,10.982c-5.357,4.646-9.643,10.096-12.857,16.341c-3.215,6.254-5.006,12.774-5.357,19.556H3348.4
		z"/>
	<path fill="#727272" d="M3668.244,392.312c-5.006-6.43-11.787-11.603-20.359-15.537c-8.572-3.927-17.328-5.894-26.252-5.894
		c-9.291,0-17.68,1.875-25.18,5.625c-7.502,3.751-13.93,8.757-19.287,15.002c-5.357,6.253-9.561,13.485-12.592,21.697
		c-3.037,8.221-4.553,16.969-4.553,26.252c0,9.292,1.422,18.04,4.285,26.252c2.855,8.221,7.049,15.454,12.592,21.698
		c5.533,6.254,12.137,11.167,19.822,14.733c7.676,3.574,16.34,5.357,25.984,5.357c8.924,0,17.764-1.69,26.52-5.09
		c8.748-3.39,15.805-8.304,21.162-14.732l48.754,59.469c-11.076,10.715-25.365,19.111-42.861,25.18
		c-17.504,6.069-36.078,9.108-55.719,9.108c-21.078,0-40.75-3.215-59.016-9.644c-18.266-6.43-34.139-15.805-47.607-28.127
		c-13.477-12.322-24.074-27.231-31.801-44.736c-7.727-17.495-11.586-37.318-11.586-59.469c0-21.781,3.859-41.429,11.586-58.933
		c7.727-17.496,18.324-32.413,31.801-44.735c13.469-12.322,29.342-21.782,47.607-28.396c18.266-6.604,37.762-9.911,58.48-9.911
		c9.645,0,19.195,0.896,28.664,2.679c9.459,1.792,18.566,4.202,27.322,7.232c8.748,3.039,16.785,6.789,24.109,11.251
		c7.316,4.471,13.662,9.376,19.02,14.733L3668.244,392.312z"/>
	<path fill="#727272" d="M4040.052,572.861h-108.758l-87.328-128.045h-1.607v128.045h-88.4v-405.03h88.4v246.447h1.607
		l85.184-108.223h106.615L3932.9,426.6L4040.052,572.861z"/>
	<path fill="#727272" d="M4327.215,442.672c0,3.574,0,7.149,0,10.715c0,3.575-0.186,6.965-0.537,10.18h-193.406
		c0.711,7.501,2.945,14.29,6.697,20.358c3.75,6.078,8.572,11.343,14.465,15.805c5.893,4.471,12.498,7.953,19.822,10.447
		c7.316,2.503,14.91,3.751,22.77,3.751c13.93,0,25.717-2.587,35.359-7.769c9.645-5.174,17.496-11.87,23.574-20.091l61.076,38.574
		c-12.506,18.216-29.023,32.237-49.557,42.057c-20.543,9.819-44.385,14.733-71.523,14.733c-20.008,0-38.936-3.131-56.791-9.376
		c-17.863-6.245-33.484-15.353-46.879-27.323c-13.393-11.963-23.932-26.696-31.609-44.2c-7.684-17.495-11.518-37.503-11.518-60.004
		c0-21.782,3.75-41.521,11.25-59.201s17.68-32.681,30.539-45.003c12.858-12.323,28.035-21.874,45.539-28.663
		c17.494-6.781,36.43-10.18,56.789-10.18c19.639,0,37.68,3.307,54.111,9.911c16.424,6.613,30.539,16.165,42.324,28.663
		c11.787,12.507,20.979,27.684,27.592,45.539C4323.908,399.46,4327.215,419.819,4327.215,442.672z M4246.314,408.92
		c0-13.93-4.377-25.893-13.125-35.896c-8.756-9.995-21.883-15.001-39.379-15.001c-8.57,0-16.432,1.34-23.572,4.019
		c-7.148,2.679-13.395,6.346-18.752,10.982c-5.357,4.646-9.643,10.096-12.857,16.341c-3.215,6.254-5.006,12.774-5.357,19.556
		H4246.314z"/>
	<path fill="#727272" d="M4554.906,378.382c-3.936-1.072-7.77-1.783-11.52-2.144c-3.75-0.352-7.416-0.535-10.982-0.535
		c-11.787,0-21.697,2.143-29.734,6.412c-8.037,4.277-14.465,9.442-19.287,15.495c-4.822,6.061-8.305,12.648-10.447,19.772
		s-3.215,13.352-3.215,18.692v136.785h-87.863V306.374h84.648v38.574h1.072c6.781-13.662,16.424-24.812,28.93-33.443
		c12.498-8.63,26.965-12.95,43.396-12.95c3.566,0,7.049,0.185,10.447,0.536c3.391,0.36,6.162,0.896,8.305,1.607L4554.906,378.382z"
		/>
</g>
<g enable-background="new    ">
	<path fill="none" stroke="#000000" stroke-width="2" stroke-miterlimit="10" d="M3109.457,438.386
		c0,18.576-2.863,36.432-8.572,53.575c-5.719,17.145-14.021,32.238-24.913,45.271c-10.899,13.043-24.201,23.489-39.914,31.342
		c-15.721,7.853-33.577,11.787-53.575,11.787c-16.433,0-31.97-3.307-46.611-9.912c-14.648-6.604-26.076-15.62-34.287-27.056h-1.072
		v158.048h-87.863V306.055h83.578v32.681h1.606c8.212-10.715,19.556-20.091,34.021-28.127s31.518-12.055,51.164-12.055
		c19.287,0,36.783,3.751,52.504,11.251c15.713,7.501,29.016,17.68,39.914,30.538c10.891,12.858,19.287,27.775,25.182,44.735
		C3106.51,402.047,3109.457,419.819,3109.457,438.386z M3024.271,438.386c0-8.572-1.34-16.96-4.019-25.181
		c-2.679-8.212-6.613-15.444-11.786-21.697c-5.182-6.245-11.703-11.335-19.555-15.27c-7.861-3.926-16.969-5.894-27.324-5.894
		c-10.004,0-18.936,1.968-26.787,5.894c-7.861,3.935-14.559,9.108-20.092,15.537c-5.541,6.429-9.827,13.754-12.857,21.966
		c-3.039,8.221-4.555,16.608-4.555,25.181s1.516,16.968,4.555,25.181c3.03,8.22,7.316,15.536,12.857,21.966
		c5.533,6.429,12.23,11.61,20.092,15.537c7.852,3.934,16.783,5.893,26.787,5.893c10.355,0,19.463-1.959,27.324-5.893
		c7.852-3.927,14.373-9.108,19.555-15.537c5.173-6.43,9.107-13.838,11.786-22.234
		C3022.931,455.447,3024.271,446.958,3024.271,438.386z"/>
	<path fill="none" stroke="#000000" stroke-width="2" stroke-miterlimit="10" d="M3429.301,442.672c0,3.574,0,7.149,0,10.715
		c0,3.575-0.186,6.965-0.537,10.18h-193.406c0.711,7.501,2.945,14.29,6.697,20.358c3.75,6.078,8.572,11.343,14.465,15.805
		c5.893,4.471,12.498,7.953,19.822,10.447c7.316,2.503,14.91,3.751,22.77,3.751c13.93,0,25.717-2.587,35.359-7.769
		c9.645-5.174,17.496-11.87,23.574-20.091l61.076,38.574c-12.506,18.216-29.023,32.237-49.557,42.057
		c-20.543,9.819-44.385,14.733-71.523,14.733c-20.008,0-38.936-3.131-56.791-9.376c-17.863-6.245-33.484-15.353-46.879-27.323
		c-13.393-11.963-23.932-26.696-31.609-44.2c-7.684-17.495-11.518-37.503-11.518-60.004c0-21.782,3.75-41.521,11.25-59.201
		s17.68-32.681,30.539-45.003c12.857-12.323,28.035-21.874,45.539-28.663c17.494-6.781,36.43-10.18,56.789-10.18
		c19.639,0,37.68,3.307,54.111,9.911c16.424,6.613,30.539,16.165,42.324,28.663c11.787,12.507,20.979,27.684,27.592,45.539
		C3425.994,399.46,3429.301,419.819,3429.301,442.672z M3348.4,408.92c0-13.93-4.377-25.893-13.125-35.896
		c-8.756-9.995-21.883-15.001-39.379-15.001c-8.57,0-16.432,1.34-23.572,4.019c-7.148,2.679-13.395,6.346-18.752,10.982
		c-5.357,4.646-9.643,10.096-12.857,16.341c-3.215,6.254-5.006,12.774-5.357,19.556H3348.4z"/>
	<path fill="none" stroke="#000000" stroke-width="2" stroke-miterlimit="10" d="M3668.244,392.312
		c-5.006-6.43-11.787-11.603-20.359-15.537c-8.572-3.927-17.328-5.894-26.252-5.894c-9.291,0-17.68,1.875-25.18,5.625
		c-7.502,3.751-13.93,8.757-19.287,15.002c-5.357,6.253-9.561,13.485-12.592,21.697c-3.037,8.221-4.553,16.969-4.553,26.252
		c0,9.292,1.422,18.04,4.285,26.252c2.855,8.221,7.049,15.454,12.592,21.698c5.533,6.254,12.137,11.167,19.822,14.733
		c7.676,3.574,16.34,5.357,25.984,5.357c8.924,0,17.764-1.69,26.52-5.09c8.748-3.39,15.805-8.304,21.162-14.732l48.754,59.469
		c-11.076,10.715-25.365,19.111-42.861,25.18c-17.504,6.069-36.078,9.108-55.719,9.108c-21.078,0-40.75-3.215-59.016-9.644
		c-18.266-6.43-34.139-15.805-47.607-28.127c-13.477-12.322-24.074-27.231-31.801-44.736c-7.727-17.495-11.586-37.318-11.586-59.469
		c0-21.781,3.859-41.429,11.586-58.933c7.727-17.496,18.324-32.413,31.801-44.735c13.469-12.322,29.342-21.782,47.607-28.396
		c18.266-6.604,37.762-9.911,58.48-9.911c9.645,0,19.195,0.896,28.664,2.679c9.459,1.792,18.566,4.202,27.322,7.232
		c8.748,3.039,16.785,6.789,24.109,11.251c7.316,4.471,13.662,9.376,19.02,14.733L3668.244,392.312z"/>
	<path fill="none" stroke="#000000" stroke-width="2" stroke-miterlimit="10" d="M4040.052,572.861h-108.758l-87.328-128.045h-1.607
		v128.045h-88.4v-405.03h88.4v246.447h1.607l85.184-108.223h106.615L3932.9,426.6L4040.052,572.861z"/>
	<path fill="none" stroke="#000000" stroke-width="2" stroke-miterlimit="10" d="M4327.215,442.672c0,3.574,0,7.149,0,10.715
		c0,3.575-0.186,6.965-0.537,10.18h-193.406c0.711,7.501,2.945,14.29,6.697,20.358c3.75,6.078,8.572,11.343,14.465,15.805
		c5.893,4.471,12.498,7.953,19.822,10.447c7.316,2.503,14.91,3.751,22.77,3.751c13.93,0,25.717-2.587,35.359-7.769
		c9.645-5.174,17.496-11.87,23.574-20.091l61.076,38.574c-12.506,18.216-29.023,32.237-49.557,42.057
		c-20.543,9.819-44.385,14.733-71.523,14.733c-20.008,0-38.936-3.131-56.791-9.376c-17.863-6.245-33.484-15.353-46.879-27.323
		c-13.393-11.963-23.932-26.696-31.609-44.2c-7.684-17.495-11.518-37.503-11.518-60.004c0-21.782,3.75-41.521,11.25-59.201
		s17.68-32.681,30.539-45.003c12.858-12.323,28.035-21.874,45.539-28.663c17.494-6.781,36.43-10.18,56.789-10.18
		c19.639,0,37.68,3.307,54.111,9.911c16.424,6.613,30.539,16.165,42.324,28.663c11.787,12.507,20.979,27.684,27.592,45.539
		C4323.908,399.46,4327.215,419.819,4327.215,442.672z M4246.314,408.92c0-13.93-4.377-25.893-13.125-35.896
		c-8.756-9.995-21.883-15.001-39.379-15.001c-8.57,0-16.432,1.34-23.572,4.019c-7.148,2.679-13.395,6.346-18.752,10.982
		c-5.357,4.646-9.643,10.096-12.857,16.341c-3.215,6.254-5.006,12.774-5.357,19.556H4246.314z"/>
	<path fill="none" stroke="#000000" stroke-width="2" stroke-miterlimit="10" d="M4554.906,378.382
		c-3.936-1.072-7.77-1.783-11.52-2.144c-3.75-0.352-7.416-0.535-10.982-0.535c-11.787,0-21.697,2.143-29.734,6.412
		c-8.037,4.277-14.465,9.442-19.287,15.495c-4.822,6.061-8.305,12.648-10.447,19.772s-3.215,13.352-3.215,18.692v136.785h-87.863
		V306.374h84.648v38.574h1.072c6.781-13.662,16.424-24.812,28.93-33.443c12.498-8.63,26.965-12.95,43.396-12.95
		c3.566,0,7.049,0.185,10.447,0.536c3.391,0.36,6.162,0.896,8.305,1.607L4554.906,378.382z"/>
</g>
</svg>
