<?xml version="1.0" encoding="UTF-8" standalone="no"?>
<svg width="1420px" height="192px" viewBox="0 0 1420 192" version="1.1" xmlns="http://www.w3.org/2000/svg" xmlns:xlink="http://www.w3.org/1999/xlink">
    <!-- Generator: Sketch 47.1 (45422) - http://www.bohemiancoding.com/sketch -->
    <title>Group 4</title>
    <desc>Created with Sketch.</desc>
    <defs></defs>
    <g id="Page-1" stroke="none" stroke-width="1" fill="none" fill-rule="evenodd">
        <g id="Group-4" transform="translate(0.000000, -9.000000)">
            <path d="M323.45,153.4 C321.44999,153.4 319.883339,152.833339 318.75,151.7 C317.616661,150.566661 316.71667,149.466672 316.05,148.4 L297.25,115.4 L297.25,181.6 C297.25,183.066674 296.716672,184.333328 295.65,185.4 C294.583328,186.466672 293.316674,187 291.85,187 L265.65,187 C264.183326,187 262.916672,186.466672 261.85,185.4 C260.783328,184.333328 260.25,183.066674 260.25,181.6 L260.25,52.4 C260.25,50.933326 260.783328,49.666672 261.85,48.6 C262.916672,47.533328 264.183326,47 265.65,47 L288.85,47 C291.51668,47 293.51666,47.733326 294.85,49.2 C296.18334,50.666674 297.049998,51.73333 297.45,52.4 L329.85,107.8 L362.25,52.4 C362.650002,51.73333 363.51666,50.666674 364.85,49.2 C366.18334,47.733326 368.18332,47 370.85,47 L394.05,47 C395.516674,47 396.783328,47.533328 397.85,48.6 C398.916672,49.666672 399.45,50.933326 399.45,52.4 L399.45,181.6 C399.45,183.066674 398.916672,184.333328 397.85,185.4 C396.783328,186.466672 395.516674,187 394.05,187 L367.85,187 C366.383326,187 365.116672,186.466672 364.05,185.4 C362.983328,184.333328 362.45,183.066674 362.45,181.6 L362.45,115.4 L343.65,148.4 C342.98333,149.466672 342.083339,150.566661 340.95,151.7 C339.816661,152.833339 338.25001,153.4 336.25,153.4 L323.45,153.4 Z M502.283333,47 C504.950013,47 506.983326,47.733326 508.383333,49.2 C509.78334,50.666674 510.749997,52.133326 511.283333,53.6 L554.883333,179.6 C555.416669,180.93334 555.683333,181.93333 555.683333,182.6 C555.683333,183.800006 555.250004,184.833329 554.383333,185.7 C553.516662,186.566671 552.483339,187 551.283333,187 L526.083333,187 C523.416653,187 521.516672,186.433339 520.383333,185.3 C519.249994,184.166661 518.550001,183.066672 518.283333,182 L512.683333,165.4 L459.483333,165.4 L453.883333,182 C453.616665,183.066672 452.916672,184.166661 451.783333,185.3 C450.649994,186.433339 448.750013,187 446.083333,187 L420.883333,187 C419.683327,187 418.650004,186.566671 417.783333,185.7 C416.916662,184.833329 416.483333,183.800006 416.483333,182.6 C416.483333,181.93333 416.749997,180.93334 417.283333,179.6 L460.883333,53.6 C461.416669,52.133326 462.383326,50.666674 463.783333,49.2 C465.18334,47.733326 467.216653,47 469.883333,47 L502.283333,47 Z M469.883333,134.4 L502.283333,134.4 L486.083333,86.4 L469.883333,134.4 Z M578.116667,187 C576.649993,187 575.383339,186.466672 574.316667,185.4 C573.249995,184.333328 572.716667,183.066674 572.716667,181.6 L572.716667,52.4 C572.716667,50.933326 573.249995,49.666672 574.316667,48.6 C575.383339,47.533328 576.649993,47 578.116667,47 L604.316667,47 C605.783341,47 607.049995,47.533328 608.116667,48.6 C609.183339,49.666672 609.716667,50.933326 609.716667,52.4 L609.716667,181.6 C609.716667,183.066674 609.183339,184.333328 608.116667,185.4 C607.049995,186.466672 605.783341,187 604.316667,187 L578.116667,187 Z M736.55,155 C738.016674,155 739.283328,155.533328 740.35,156.6 C741.416672,157.666672 741.95,158.933326 741.95,160.4 L741.95,181.6 C741.95,183.066674 741.416672,184.333328 740.35,185.4 C739.283328,186.466672 738.016674,187 736.55,187 L643.95,187 C642.483326,187 641.216672,186.466672 640.15,185.4 C639.083328,184.333328 638.55,183.066674 638.55,181.6 L638.55,52.4 C638.55,50.933326 639.083328,49.666672 640.15,48.6 C641.216672,47.533328 642.483326,47 643.95,47 L670.15,47 C671.616674,47 672.883328,47.533328 673.95,48.6 C675.016672,49.666672 675.55,50.933326 675.55,52.4 L675.55,155 L736.55,155 Z M811.983333,45 C820.516709,45 828.349964,46.233321 835.483333,48.7 C842.616702,51.166679 848.783307,54.333314 853.983333,58.2 C859.183359,62.066686 863.249985,66.33331 866.183333,71 C869.116681,75.66669 870.649999,80.133312 870.783333,84.4 C870.783333,85.600006 870.350004,86.633329 869.483333,87.5 C868.616662,88.366671 867.650005,88.8 866.583333,88.8 L840.383333,88.8 C838.516657,88.8 837.016672,88.533336 835.883333,88 C834.749994,87.466664 833.583339,86.666672 832.383333,85.6 C831.983331,85.199998 831.350004,84.533338 830.483333,83.6 C829.616662,82.666662 828.383341,81.700005 826.783333,80.7 C825.183325,79.699995 823.183345,78.833337 820.783333,78.1 C818.383321,77.366663 815.450017,77 811.983333,77 C809.449987,77 807.016678,77.166665 804.683333,77.5 C802.349988,77.833335 800.283342,78.366663 798.483333,79.1 C796.683324,79.833337 795.216672,80.86666 794.083333,82.2 C792.949994,83.53334 792.383333,85.19999 792.383333,87.2 C792.383333,89.20001 793.01666,90.86666 794.283333,92.2 C795.550006,93.53334 797.683318,94.766661 800.683333,95.9 C803.683348,97.033339 807.649975,98.133328 812.583333,99.2 C817.516691,100.266672 823.649963,101.533326 830.983333,103 C838.316703,104.466674 844.716639,106.333322 850.183333,108.6 C855.650027,110.866678 860.216648,113.699983 863.883333,117.1 C867.550018,120.500017 870.283324,124.499977 872.083333,129.1 C873.883342,133.700023 874.783333,139.133302 874.783333,145.4 C874.783333,152.200034 873.250015,158.26664 870.183333,163.6 C867.116651,168.93336 862.816694,173.499981 857.283333,177.3 C851.749972,181.100019 845.216704,183.99999 837.683333,186 C830.149962,188.00001 821.916711,189 812.983333,189 C803.916621,189 795.650037,187.800012 788.183333,185.4 C780.716629,182.999988 774.28336,179.833353 768.883333,175.9 C763.483306,171.966647 759.250015,167.533358 756.183333,162.6 C753.116651,157.666642 751.516667,152.666692 751.383333,147.6 C751.383333,146.399994 751.816662,145.366671 752.683333,144.5 C753.550004,143.633329 754.516661,143.2 755.583333,143.2 L781.783333,143.2 C783.650009,143.2 785.116661,143.433331 786.183333,143.9 C787.250005,144.366669 788.316661,145.066662 789.383333,146 C789.916669,146.533336 790.716661,147.399994 791.783333,148.6 C792.850005,149.800006 794.283324,151.033327 796.083333,152.3 C797.883342,153.566673 800.149986,154.666662 802.883333,155.6 C805.61668,156.533338 808.983313,157 812.983333,157 C820.050035,157 825.949976,156.233341 830.683333,154.7 C835.41669,153.166659 837.783333,150.40002 837.783333,146.4 C837.783333,144.39999 836.916675,142.73334 835.183333,141.4 C833.449991,140.06666 830.850017,138.833339 827.383333,137.7 C823.916649,136.566661 819.48336,135.466672 814.083333,134.4 C808.683306,133.333328 802.316703,132.000008 794.983333,130.4 C781.249931,127.466652 771.216698,122.566701 764.883333,115.7 C758.549968,108.833299 755.383333,99.666724 755.383333,88.2 C755.383333,82.466638 756.68332,77.000026 759.283333,71.8 C761.883346,66.599974 765.649975,62.00002 770.583333,58 C775.516691,53.99998 781.483298,50.833345 788.483333,48.5 C795.483368,46.166655 803.316623,45 811.983333,45 Z M993.616667,155 C995.083341,155 996.349995,155.533328 997.416667,156.6 C998.483339,157.666672 999.016667,158.933326 999.016667,160.4 L999.016667,181.6 C999.016667,183.066674 998.483339,184.333328 997.416667,185.4 C996.349995,186.466672 995.083341,187 993.616667,187 L901.016667,187 C899.549993,187 898.283339,186.466672 897.216667,185.4 C896.149995,184.333328 895.616667,183.066674 895.616667,181.6 L895.616667,52.4 C895.616667,50.933326 896.149995,49.666672 897.216667,48.6 C898.283339,47.533328 899.549993,47 901.016667,47 L927.216667,47 C928.683341,47 929.949995,47.533328 931.016667,48.6 C932.083339,49.666672 932.616667,50.933326 932.616667,52.4 L932.616667,155 L993.616667,155 Z M1129.05,47 C1130.51667,47 1131.78333,47.533328 1132.85,48.6 C1133.91667,49.666672 1134.45,50.933326 1134.45,52.4 L1134.45,132.2 C1134.45,141.400046 1132.98335,149.533298 1130.05,156.6 C1127.11665,163.666702 1122.95003,169.599976 1117.55,174.4 C1112.14997,179.200024 1105.7167,182.833321 1098.25,185.3 C1090.7833,187.766679 1082.58338,189 1073.65,189 C1064.58329,189 1056.3167,187.766679 1048.85,185.3 C1041.3833,182.833321 1034.98336,179.200024 1029.65,174.4 C1024.31664,169.599976 1020.18335,163.666702 1017.25,156.6 C1014.31665,149.533298 1012.85,141.400046 1012.85,132.2 L1012.85,52.4 C1012.85,50.933326 1013.38333,49.666672 1014.45,48.6 C1015.51667,47.533328 1016.78333,47 1018.25,47 L1044.45,47 C1045.91667,47 1047.18333,47.533328 1048.25,48.6 C1049.31667,49.666672 1049.85,50.933326 1049.85,52.4 L1049.85,131.4 C1049.85,139.40004 1051.81665,145.666644 1055.75,150.2 C1059.68335,154.733356 1065.64996,157 1073.65,157 C1081.65004,157 1087.61665,154.733356 1091.55,150.2 C1095.48335,145.666644 1097.45,139.40004 1097.45,131.4 L1097.45,52.4 C1097.45,50.933326 1097.98333,49.666672 1099.05,48.6 C1100.11667,47.533328 1101.38333,47 1102.85,47 L1129.05,47 Z M1221.48333,47 C1230.28338,47 1238.14997,47.933324 1245.08333,49.8 C1252.0167,51.666676 1257.91664,54.466648 1262.78333,58.2 C1267.65002,61.933352 1271.38332,66.699971 1273.98333,72.5 C1276.58335,78.300029 1277.88333,85.066628 1277.88333,92.8 C1277.88333,102.80005 1275.81669,111.099967 1271.68333,117.7 C1267.54998,124.300033 1261.68337,129.333316 1254.08333,132.8 L1278.88333,180.4 C1279.28334,181.200004 1279.48333,181.93333 1279.48333,182.6 C1279.48333,183.800006 1279.05,184.833329 1278.18333,185.7 C1277.31666,186.566671 1276.28334,187 1275.08333,187 L1247.88333,187 C1245.21665,187 1243.31667,186.400006 1242.18333,185.2 C1241.04999,183.999994 1240.15,182.800006 1239.48333,181.6 L1217.28333,138.8 L1198.88333,138.8 L1198.88333,181.6 C1198.88333,183.066674 1198.35001,184.333328 1197.28333,185.4 C1196.21666,186.466672 1194.95001,187 1193.48333,187 L1167.28333,187 C1165.81666,187 1164.55001,186.466672 1163.48333,185.4 C1162.41666,184.333328 1161.88333,183.066674 1161.88333,181.6 L1161.88333,52.4 C1161.88333,50.933326 1162.41666,49.666672 1163.48333,48.6 C1164.55001,47.533328 1165.81666,47 1167.28333,47 L1221.48333,47 Z M1198.88333,107.6 L1221.48333,107.6 C1227.08336,107.6 1231.71665,106.533344 1235.38333,104.4 C1239.05002,102.266656 1240.88333,98.400028 1240.88333,92.8 C1240.88333,87.199972 1239.05002,83.333344 1235.38333,81.2 C1231.71665,79.066656 1227.08336,78 1221.48333,78 L1198.88333,78 L1198.88333,107.6 Z M1364.31667,47 C1372.85004,47 1380.51663,47.966657 1387.31667,49.9 C1394.1167,51.833343 1399.91664,54.766647 1404.71667,58.7 C1409.51669,62.633353 1413.21665,67.533304 1415.81667,73.4 C1418.41668,79.266696 1419.71667,86.066628 1419.71667,93.8 C1419.71667,101.666706 1418.41668,108.533304 1415.81667,114.4 C1413.21665,120.266696 1409.51669,125.133314 1404.71667,129 C1399.91664,132.866686 1394.1167,135.79999 1387.31667,137.8 C1380.51663,139.80001 1372.85004,140.8 1364.31667,140.8 L1338.71667,140.8 L1338.71667,181.6 C1338.71667,183.066674 1338.18334,184.333328 1337.11667,185.4 C1336.04999,186.466672 1334.78334,187 1333.31667,187 L1307.11667,187 C1305.64999,187 1304.38334,186.466672 1303.31667,185.4 C1302.24999,184.333328 1301.71667,183.066674 1301.71667,181.6 L1301.71667,52.4 C1301.71667,50.933326 1302.24999,49.666672 1303.31667,48.6 C1304.38334,47.533328 1305.64999,47 1307.11667,47 L1364.31667,47 Z M1338.71667,109.6 L1363.31667,109.6 C1368.91669,109.6 1373.54998,108.366679 1377.21667,105.9 C1380.88335,103.433321 1382.71667,99.400028 1382.71667,93.8 C1382.71667,88.199972 1380.88335,84.166679 1377.21667,81.7 C1373.54998,79.233321 1368.91669,78 1363.31667,78 L1338.71667,78 L1338.71667,109.6 Z" id="MAILSLURP" fill="#333333"></path>
            <g id="tongue-out-(1)" transform="translate(0.000000, 9.000000)" fill-rule="nonzero">
                <g id="Group" transform="translate(10.000000, 19.000000)" fill="#F7910B">
                    <path d="M200.757181,108.115539 C200.757181,151.26451 161.334539,172.262047 100.378591,172.262047 C39.4226426,172.262047 0,151.26451 0,108.115539 C0,64.9669062 39.4226426,0.243957031 100.378591,0.243957031 C161.334539,0.243957031 200.757181,64.9669062 200.757181,108.115539 Z" id="Shape"></path>
                    <path d="M200.757181,108.115539 C200.757181,151.26451 161.334539,172.838826 100.378591,172.838826 C39.4226426,172.838826 0,151.26451 0,108.115539 C0,64.9669062 39.4226426,1.03935156 100.378591,1.03935156 C161.334539,1.03935156 200.757181,64.9669062 200.757181,108.115539 Z" id="Shape"></path>
                </g>
                <g id="Group" transform="translate(10.000000, 19.000000)" fill="#F9A908">
                    <path d="M100.378591,1.71479492 C161.334539,1.71479492 200.757181,64.9669062 200.757181,108.115201 C200.757181,151.264172 161.334539,172.838488 100.378591,172.838488" id="Shape"></path>
                    <path d="M200.757181,108.115539 C200.757181,151.26451 161.334539,172.838826 100.378591,172.838826 C0,172.838488 0,172.838488 0,108.115539 C0,64.9669062 39.4226426,0.243957031 100.378591,0.243957031 C161.334539,0.243957031 200.757181,64.9669062 200.757181,108.115539 Z" id="Shape"></path>
                </g>
                <path d="M10,128 C10,20 10,20 110,20" id="Shape" fill="#F9C55D"></path>
                <path d="M110,20 C170.726045,20 210,84.4632338 210,127.438162 C210,192 210,192 110,192" id="Shape" fill="#F7910B"></path>
                <path d="M110,20 C210,20 210,20 210,128" id="Shape" fill="#EA7103"></path>
                <path d="M89.8693913,52.1835723 C90.8875528,54.7982328 85.7970907,55.1249407 80.0273936,57.4125607 C74.258042,59.3734729 70.1857414,62.641549 69.1672344,60.0268885 C68.1487274,57.412228 71.8821015,53.4907362 77.6517986,51.529824 C83.0818782,49.242204 88.5119578,49.5689118 89.8693913,52.1835723 Z" id="Shape" fill="#19BCA4"></path>
                <path d="M89.8746123,52 C90.852074,54.669102 85.9650971,55.0026124 80.426037,57.3378644 C74.8873085,59.339606 70.9777934,62.6757288 70,60.0066268" id="Shape" fill="#109DA0"></path>
                <path d="M130.130602,52.1835723 C129.112436,54.7982328 134.203267,55.1249407 139.972646,57.4125607 C145.742024,59.3734729 149.814689,62.641549 150.832856,60.0268885 C151.851022,57.4125607 148.117976,53.4907362 142.348252,51.529824 C136.918147,49.242204 131.488042,49.5689118 130.130602,52.1835723 Z" id="Shape" fill="#19BCA4"></path>
                <path d="M130.125381,52 C129.147919,54.669102 134.035229,55.0026124 139.573959,57.3378644 C145.11269,59.339606 149.022538,62.6757288 150,60.0066268" id="Shape" fill="#109DA0"></path>
                <path d="M96,105.240988 C96,109.190679 84.333255,107.544863 70,107.544863 C55.666745,107.544863 44,109.520043 44,105.240988 C44,101.291297 55.666745,98 70,98 C84.333255,98 96,101.291297 96,105.240988 Z" id="Shape" fill="#F9C55D"></path>
                <path d="M176,105.240988 C176,109.190679 164.333255,107.544863 150,107.544863 C135.666745,107.544863 124,109.520043 124,105.240988 C124,101.291297 135.666745,98 150,98 C164.333255,98 176,101.291297 176,105.240988 Z" id="Shape" fill="#F9A908"></path>
                <g id="Group" transform="translate(19.000000, 110.000000)" fill="#F7910B">
                    <ellipse id="Oval" cx="18.9132955" cy="7.6425283" rx="2.00931818" ry="2.00173585"></ellipse>
                    <ellipse id="Oval" cx="3.84375" cy="14.3147547" rx="3.68352273" ry="3.66962264"></ellipse>
                    <ellipse id="Oval" cx="13.89" cy="0.969962264" rx="1" ry="1"></ellipse>
                    <ellipse id="Oval" cx="29.2943182" cy="6.97516981" rx="1" ry="1"></ellipse>
                </g>
                <g id="Group" transform="translate(163.000000, 92.000000)" fill="#F9A908">
                    <ellipse id="Oval" cx="15.1635165" cy="25.6778626" rx="2.59087912" ry="2.63966412"></ellipse>
                    <ellipse id="Oval" cx="23.2595604" cy="30.296855" rx="1" ry="1"></ellipse>
                    <ellipse id="Oval" cx="6.09593407" cy="1.26256489" rx="1" ry="1"></ellipse>
                    <ellipse id="Oval" cx="4.47659341" cy="39.5351756" rx="4.20989011" ry="4.28916031"></ellipse>
                    <ellipse id="Oval" cx="27.7931868" cy="39.8650076" rx="1.94307692" ry="1.97966412"></ellipse>
                </g>
                <g id="Group" transform="translate(33.000000, 101.000000)" fill="#F7910B">
                    <ellipse id="Oval" cx="1.88533333" cy="29.2461413" rx="1.63733333" ry="1.65513043"></ellipse>
                    <ellipse id="Oval" cx="4.50466667" cy="1.44251087" rx="1.30966667" ry="1.32390217"></ellipse>
                </g>
                <g id="Group" fill="#F9A908">
                    <ellipse id="Oval" cx="4.40751603" cy="15.99375" rx="4.19967481" ry="4.24329545"></ellipse>
                    <ellipse id="Oval" cx="16.6252733" cy="2.49170455" rx="2.29063969" ry="2.31443182"></ellipse>
                    <ellipse id="Oval" cx="212.105678" cy="25.2518182" rx="1" ry="1"></ellipse>
                    <ellipse id="Oval" cx="209.051154" cy="14.0645455" rx="3.05452366" ry="3.08625"></ellipse>
                    <ellipse id="Oval" cx="218.977934" cy="15.9934091" rx="1.90903511" ry="1.92886364"></ellipse>
                    <ellipse id="Oval" cx="8.98913282" cy="27.5665909" rx="2.29063969" ry="2.31443182"></ellipse>
                </g>
                <path d="M83.7735921,96 C82.447352,95.6752689 81.1211119,95.0254759 80.1263474,93.7262207 C76.4787652,88.5288691 68.8528003,87.2296138 63.5471648,90.8026484 C60.8946846,92.4269654 57.578578,91.7771725 55.9208623,89.5033932 C54.2631466,87.2296138 54.9260978,83.6562486 57.2474399,82.0322622 C67.5262226,74.8858624 81.7840631,77.4847036 89.0792275,87.8794068 C90.7369433,90.1531861 90.0736544,93.7265514 87.7526499,95.3505377 C86.4264098,96 85.0998321,96 83.7735921,96 Z" id="Shape" fill="#1E4784"></path>
                <path d="M89.0792275,86.5348375 C90.7369433,88.8138687 90.0736544,92.3954876 87.7526499,94.023225 C86.4264098,95 85.1001697,95 83.7735921,95 C82.447352,94.6745188 81.1211119,94.023225 80.1263474,92.7209688 C76.4787652,87.5116125 68.8528003,86.2093563 63.5471648,89.7906437 C60.8946846,91.4187126 57.578578,90.7674187 55.9208623,88.4883875 C54.2631466,86.2093563 54.9260978,82.6277374 57.2474399,81" id="Shape" fill="#02243E"></path>
                <path d="M137.226311,96 C138.552548,95.6752689 139.878785,95.0254759 140.873885,93.7262207 C144.521121,88.5288691 152.147405,87.2296138 157.45269,90.8026484 C160.105163,92.4269654 163.421262,91.7771725 165.078974,89.5033932 C166.737023,87.2296138 166.073736,83.6562486 163.752737,82.0322622 C153.473641,74.8858624 139.215836,77.4847036 131.921026,87.8794068 C130.262977,90.1531861 130.926264,93.7265514 133.247263,95.3505377 C134.573838,96 135.900075,96 137.226311,96 Z" id="Shape" fill="#1E4784"></path>
                <path d="M131.921026,86.5348375 C130.262977,88.8138687 130.926264,92.3954876 133.247263,94.023225 C134.573838,95 135.899737,95 137.226311,95 C138.552548,94.6745188 139.878785,94.023225 140.873885,92.7209688 C144.521121,87.5116125 152.147405,86.2093563 157.45269,89.7906437 C160.105163,91.4187126 163.421262,90.7674187 165.078974,88.4883875 C166.737023,86.2093563 166.073736,82.6277374 163.752737,81" id="Shape" fill="#02243E"></path>
                <path d="M135,126 C135,134.547881 124.073999,150 110.499831,150 C96.9256643,150 86,134.547881 86,126" id="Shape" fill="#F7910B"></path>
                <path d="M154.135546,115.621277 C153.80832,114.638548 153.153535,113.655152 152.825975,113 C147.588692,123.486108 130.895166,131.677848 110.928045,132.333334 C109.618808,132.333334 108.309571,132.333334 107,132.333334 C107.654785,133.971548 107.982011,135.610097 108.636797,137.248311 C116.165328,154.287611 135.804889,170.671425 148.243478,164.773385 C161.009292,158.547436 161.664078,132.66091 154.135546,115.621277 Z" id="Shape" fill="#C11664"></path>
                <path d="M149.114537,165 C161.819156,159.038386 162.822197,132.872833 155.132783,115.649868 C154.798549,114.65621 154.129742,113.662214 153.795168,113 C148.445729,123.599136 131.394713,131.879174 111,132.541726" id="Shape" fill="#99144A"></path>
                <g id="Group" transform="translate(57.000000, 103.000000)" fill="#02243E">
                    <path d="M3.81183281,16.476866 C1.82237539,16.476866 0.164719243,14.8061134 0.164719243,12.8009381 C0.164719243,10.7954227 1.82237539,9.1246701 3.81183281,9.1246701 C6.79601893,9.1246701 9.11694006,6.78541237 9.11694006,3.77764948 C9.11694006,1.77213402 10.7749338,0.101381443 12.7643912,0.101381443 C14.7541861,0.101381443 16.4118423,1.77213402 16.4118423,3.77764948 C16.080041,10.7954227 10.44347,16.476866 3.81183281,16.476866 Z" id="Shape"></path>
                    <path d="M103.282678,16.476866 C96.3195773,16.476866 90.6830063,10.7957629 90.6830063,3.77798969 C90.6830063,1.77247423 92.341,0.101721649 94.3304574,0.101721649 C96.3199148,0.101721649 97.9779085,1.77247423 97.9779085,3.77798969 C97.9779085,6.78575258 100.29883,9.12501031 103.283016,9.12501031 C105.272473,9.12501031 106.930467,10.7957629 106.930467,12.8012784 C106.929792,14.8061134 105.271798,16.476866 103.282678,16.476866 Z" id="Shape"></path>
                    <path d="M53.5472555,32.8520103 C36.9690063,32.8520103 20.0589558,26.5024021 7.45928391,13.4687629 C6.13309148,12.1320928 6.13309148,9.79283505 7.45928391,8.12174227 C8.78581388,6.45098969 11.106735,6.78507216 12.7643912,8.12174227 C23.7060694,19.1502062 38.2951987,25.1653918 53.8790568,25.1653918 C69.4629148,25.1653918 84.0520442,19.1502062 94.9937224,8.12174227 C96.3199148,6.78507216 98.6411735,6.78507216 100.29883,8.12174227 C101.956486,9.45875258 101.625022,11.7980103 100.29883,13.4687629 C87.0358927,26.5024021 70.1255047,32.8520103 53.5472555,32.8520103 Z" id="Shape"></path>
                </g>
                <ellipse id="Oval" fill="#C11664" cx="144" cy="140.5" rx="5" ry="11.5"></ellipse>
            </g>
        </g>
    </g>
</svg>